<?xml version="1.0" standalone="no"?>
<!DOCTYPE svg PUBLIC "-//W3C//DTD SVG 20010904//EN"
 "http://www.w3.org/TR/2001/REC-SVG-20010904/DTD/svg10.dtd">
<svg version="1.0" xmlns="http://www.w3.org/2000/svg"
 width="435.000000pt" height="575.000000pt" viewBox="0 0 435.000000 575.000000"
 preserveAspectRatio="xMidYMid meet">
<g transform="translate(0.000000,575.000000) scale(0.100000,-0.100000)"
fill="#000000" stroke="none">
<path d="M1824 5690 c-6 -6 -69 -16 -140 -21 -80 -6 -138 -16 -151 -25 -13 -8
-44 -17 -70 -20 -27 -4 -64 -17 -83 -29 -19 -13 -45 -26 -57 -30 -13 -3 -23
-10 -23 -15 0 -5 -18 -19 -40 -30 -22 -11 -40 -25 -40 -30 0 -6 -6 -10 -14
-10 -15 0 -136 -116 -136 -130 0 -5 -9 -11 -19 -15 -11 -3 -23 -15 -26 -25 -3
-10 -15 -22 -26 -25 -10 -4 -19 -13 -19 -22 0 -8 -9 -17 -20 -20 -10 -3 -22
-13 -25 -24 -3 -10 -15 -21 -26 -24 -10 -4 -19 -10 -19 -14 0 -5 -14 -23 -30
-42 -45 -49 -54 -61 -72 -89 -8 -14 -43 -53 -77 -88 -33 -34 -61 -65 -61 -69
0 -10 -68 -109 -84 -122 -9 -8 -16 -24 -16 -37 0 -13 -9 -31 -19 -41 -11 -10
-23 -31 -27 -48 -3 -16 -13 -38 -21 -47 -17 -20 -47 -72 -63 -111 -7 -15 -20
-32 -30 -37 -10 -5 -21 -23 -25 -39 -3 -16 -15 -37 -26 -47 -10 -9 -19 -25
-19 -34 0 -9 -11 -31 -25 -50 -14 -19 -25 -47 -25 -62 0 -16 -9 -41 -19 -56
-10 -15 -22 -51 -25 -80 -3 -29 -14 -68 -24 -85 -14 -23 -21 -58 -24 -122 -3
-53 -12 -103 -21 -120 -23 -46 -26 -94 -31 -430 -6 -412 4 -651 27 -686 10
-15 20 -51 24 -80 3 -30 14 -63 23 -74 10 -11 21 -36 25 -55 4 -19 16 -51 26
-70 14 -25 19 -56 19 -111 0 -49 7 -99 20 -139 16 -49 22 -110 30 -293 6 -146
15 -252 25 -286 11 -39 16 -137 21 -368 l7 -315 77 -76 c107 -107 147 -143
285 -258 66 -55 142 -122 169 -147 27 -26 52 -47 57 -47 11 0 93 -56 109 -75
7 -8 20 -15 29 -15 10 0 32 -11 51 -25 19 -14 45 -25 60 -25 14 0 41 -8 60
-19 19 -10 69 -21 110 -25 41 -4 90 -15 110 -23 27 -12 98 -18 310 -24 151 -5
316 -13 366 -19 94 -10 283 -16 787 -25 l297 -5 340 338 c187 187 340 344 340
351 0 6 8 24 18 39 57 83 72 110 72 129 0 11 9 31 20 45 10 14 23 52 29 86 5
33 16 71 24 84 9 14 17 62 20 118 4 52 14 115 23 140 11 32 18 103 25 250 5
113 13 234 19 270 13 86 13 344 -1 450 -6 47 -14 171 -19 275 -5 136 -13 203
-25 235 -9 25 -19 86 -22 135 -3 50 -12 103 -21 119 -8 16 -19 64 -24 105 -5
42 -16 86 -24 99 -9 13 -20 51 -25 85 -6 34 -16 69 -24 77 -8 9 -17 36 -21 60
-3 25 -14 56 -23 70 -10 14 -21 40 -24 58 -4 19 -16 45 -27 59 -11 14 -20 33
-20 42 -1 9 -16 43 -36 76 -19 33 -43 79 -53 101 -11 23 -24 45 -30 48 -5 4
-28 40 -51 81 -23 41 -45 77 -50 80 -5 3 -11 18 -15 34 -3 16 -15 37 -26 47
-10 9 -19 25 -19 34 0 9 -11 31 -25 50 -14 19 -25 41 -25 50 0 10 -10 28 -22
42 -24 26 -42 48 -129 158 -28 36 -57 72 -65 80 -56 60 -524 524 -564 560 -28
25 -63 56 -78 70 -15 14 -56 48 -91 75 -35 28 -83 69 -107 93 -24 23 -48 42
-53 42 -6 0 -15 9 -20 19 -6 10 -23 24 -38 30 -35 14 -95 58 -106 77 -4 8 -19
14 -32 14 -13 0 -36 11 -51 25 -22 20 -37 25 -81 25 -29 0 -70 7 -90 15 -41
17 -183 21 -199 5z m324 -156 c4 -31 84 -96 153 -124 61 -25 75 -42 63 -75 -3
-7 -31 -16 -62 -20 -73 -9 -113 -28 -134 -64 -19 -34 -62 -46 -136 -38 -58 6
-82 33 -82 91 0 31 7 48 29 71 47 51 70 107 51 130 -7 9 -8 27 -1 53 1 2 27 2
59 0 49 -3 57 -6 60 -24z m-304 -463 c14 -15 17 -27 12 -53 -12 -64 -86 -107
-143 -83 -35 15 -43 31 -43 86 0 33 5 42 33 60 39 24 111 19 141 -10z m161
-663 l27 -21 -23 -13 c-13 -7 -30 -13 -38 -14 -18 0 -61 -39 -61 -55 0 -18
-67 -61 -125 -80 -61 -21 -96 -11 -124 36 -15 24 -17 38 -10 61 22 78 83 104
250 107 64 1 81 -2 104 -21z m-944 -1822 c81 -55 69 -140 -25 -184 l-49 -23
-24 23 c-14 13 -38 40 -54 60 -29 35 -29 38 -15 66 22 42 73 82 104 82 15 0
43 -11 63 -24z m-96 -386 c14 -5 25 -13 25 -16 0 -4 -23 -29 -51 -55 -56 -54
-89 -62 -106 -26 -24 47 -22 66 5 86 48 33 65 34 127 11z m486 -551 c15 -15
19 -28 14 -49 -4 -17 0 -53 9 -84 12 -40 13 -61 6 -81 -13 -34 -62 -55 -106
-45 -19 4 -34 6 -34 4 0 -3 -13 2 -29 11 -39 20 -49 64 -24 109 20 37 123 156
136 156 4 0 16 -9 28 -21z"/>
</g>
</svg>
